<svg xmlns="http://www.w3.org/2000/svg" viewBox="0 0 512 512">
  <defs>
    <linearGradient id="bg" x1="64" y1="56" x2="444" y2="468" gradientUnits="userSpaceOnUse">
      <stop offset="0" stop-color="#0f4c81"/>
      <stop offset="1" stop-color="#2f80c0"/>
    </linearGradient>
    <linearGradient id="card" x1="148" y1="126" x2="356" y2="388" gradientUnits="userSpaceOnUse">
      <stop offset="0" stop-color="#ffffff"/>
      <stop offset="1" stop-color="#dceeff"/>
    </linearGradient>
  </defs>
  <rect width="512" height="512" rx="112" fill="url(#bg)"/>
  <circle cx="394" cy="120" r="34" fill="#f7c948"/>
  <path d="M124 148c0-16.569 13.431-30 30-30h204c16.569 0 30 13.431 30 30v216c0 16.569-13.431 30-30 30H200l-76 44 18-70c-10.432-5.161-18-15.911-18-28V148z" fill="url(#card)"/>
  <rect x="172" y="176" width="168" height="24" rx="12" fill="#0f4c81" opacity=".9"/>
  <rect x="172" y="224" width="134" height="22" rx="11" fill="#5fa8dd"/>
  <rect x="172" y="269" width="156" height="22" rx="11" fill="#5fa8dd"/>
  <rect x="172" y="314" width="114" height="22" rx="11" fill="#5fa8dd"/>
  <circle cx="342" cy="308" r="42" fill="#22c55e"/>
  <path d="m324 308 12 12 25-29" fill="none" stroke="#ffffff" stroke-linecap="round" stroke-linejoin="round" stroke-width="16"/>
</svg>
