<svg xmlns="http://www.w3.org/2000/svg" viewBox="0 0 64 64">
  <defs>
    <linearGradient id="bg" x1="10" y1="8" x2="55" y2="57" gradientUnits="userSpaceOnUse">
      <stop offset="0" stop-color="#0f4c81"/>
      <stop offset="1" stop-color="#2f80c0"/>
    </linearGradient>
  </defs>
  <rect width="64" height="64" rx="16" fill="url(#bg)"/>
  <path d="M16 17.5c0-1.933 1.567-3.5 3.5-3.5h25c1.933 0 3.5 1.567 3.5 3.5v26c0 1.933-1.567 3.5-3.5 3.5H27l-9 5 2.1-8.3c-1.28-.6-2.1-1.86-2.1-3.2v-23.5z" fill="#fff"/>
  <rect x="22" y="22" width="19" height="4" rx="2" fill="#0f4c81"/>
  <rect x="22" y="29" width="15" height="3.5" rx="1.75" fill="#5fa8dd"/>
  <rect x="22" y="35" width="18" height="3.5" rx="1.75" fill="#5fa8dd"/>
  <circle cx="41" cy="40" r="7" fill="#22c55e"/>
  <path d="m37.8 40 2.1 2.2 4.4-5.1" fill="none" stroke="#fff" stroke-linecap="round" stroke-linejoin="round" stroke-width="2.6"/>
</svg>
